<svg xmlns="http://www.w3.org/2000/svg" viewBox="0 0 900 650" role="img" aria-labelledby="title desc">
  <title id="title">Professional plumber fixing pipes</title>
  <desc id="desc">A warm illustration of a plumber with tools beside clean bathroom pipework.</desc>
  <defs><linearGradient id="bg" x1="0" x2="1" y1="0" y2="1"><stop stop-color="#e9f7fc"/><stop offset="1" stop-color="#fff7dd"/></linearGradient><filter id="shadow" x="-20%" y="-20%" width="140%" height="140%"><feDropShadow dx="0" dy="20" stdDeviation="22" flood-color="#10212b" flood-opacity=".18"/></filter></defs>
  <rect width="900" height="650" rx="44" fill="url(#bg)"/>
  <g filter="url(#shadow)"><rect x="95" y="95" width="710" height="455" rx="34" fill="#fff"/></g>
  <path d="M170 445h560" stroke="#d9edf5" stroke-width="18" stroke-linecap="round"/><path d="M180 250h240v95h150" fill="none" stroke="#0b4f71" stroke-width="26" stroke-linecap="round" stroke-linejoin="round"/><path d="M565 344h95c40 0 72 32 72 72v29" fill="none" stroke="#f4b942" stroke-width="26" stroke-linecap="round"/>
  <circle cx="187" cy="250" r="42" fill="#0b4f71"/><circle cx="187" cy="250" r="18" fill="#f4b942"/>
  <g transform="translate(340 130)"><circle cx="115" cy="78" r="54" fill="#f2b58f"/><path d="M56 79c12-54 109-80 137 0-38-12-83-12-137 0z" fill="#10212b"/><rect x="67" y="132" width="104" height="165" rx="36" fill="#0b4f71"/><path d="M67 168h104" stroke="#f4b942" stroke-width="16"/><path d="M90 292l-20 105M151 292l38 105" stroke="#10212b" stroke-width="28" stroke-linecap="round"/><path d="M70 172l-76 75M170 171l92 50" stroke="#f2b58f" stroke-width="28" stroke-linecap="round"/><path d="M251 214l41-44" stroke="#10212b" stroke-width="16" stroke-linecap="round"/><path d="M278 156l31 31" stroke="#10212b" stroke-width="12" stroke-linecap="round"/></g>
  <g fill="#10212b"><circle cx="215" cy="515" r="10"/><circle cx="685" cy="515" r="10"/></g>
</svg>
